<svg xmlns="http://www.w3.org/2000/svg" viewBox="0 0 300 141"><path d="M299.68 49.12c-4.225-6.015-20.149-8.127-20.149-8.127s21.047-1.978 20.149-7.147c-2.93-17.22-18.571-19.714-18.571-19.714s-2.544-10.84-6.792-13.148c-4.232-2.314-6.079 11.612-6.079 11.612s-21.06-2.623-32.027 1.042c-5.667 1.894-26.43 8.636-45.593 18.104-18.018 8.916-25.179 20.796-41.84 20.78-6.241-.016-33.396-7.947-59.065-24.846C53.082 3.561 5.747 35.156 0 90.074 31.229 63.376 88.399 46.85 136.186 66.345c4.082 1.68 5.849 9.109-.469 13.333-2.395 1.603-22.612 16.246-24.157 26.954-1.843 12.672-11.093 20.109-10.064 24.693 1.038 4.593 3.973 13.998 7.255 7.366 3.274-6.652 5.987-18.214 11.185-22.229 5.206-4.043 15.176-1.227 26.706-8.388 11.548-7.169 20.868-20.814 33.328-28.473 4.508-2.785 15.861.244 29.707-5.366 13.846-5.63 25.595-19.462 37.028-20.217 3.57 2.599 1.955 12.014 9.75 13.637 8.9 1.855 31.538-1.463 42.174.729-2.191-5.927-14.775-7.379-26.581-11.125-6.011-1.901-6.516-6.979-6.516-6.979s27.968-2.29 34.148-1.16zm-11.133-25.718c1.57 0 2.837 1.146 2.837 2.561 0 1.402-1.267 2.548-2.837 2.548-1.571 0-2.838-1.146-2.838-2.548 0-1.415 1.267-2.561 2.838-2.561z" fill-rule="nonzero"/></svg>