<svg xmlns="http://www.w3.org/2000/svg" viewBox="0 0 548 350"><path d="M6.804 287.403c11.901 1.909 24.088 3.269 36.108 2.885 13.521-.429 26.361-.926 40.212 1.693 18.193 3.439 37.773 1.257 56.553-.571 20.567-2.003 37.397 2.823 51.437 18.413 2.791 3.097 8.984 3.129 15.998 5.316 18.772 4.524 35.443 6.332 50.094 6.377 3.17 5.512 5.043 12.66-1.628 17.992-12.464 9.972-6.854 8.724-4.361 9.972 0 0 18.694-9.347 31.784-3.117 17.589 8.377 48.267-8.723 58.237-1.868 9.972 6.854 20.816-7.52 31.103-2.212 14.3 7.381 13.088 11.217 11.84 0-1.244-11.216-23.338-9.551-23.338-9.551-12.076-2.615-21.163-6.21-30.604-13.554-3.771-2.934-7.349-6.12-10.812-9.458l.103-.036c2.288-.91 4.442-2.016 6.368-3.309 1.004-.674 2-1.371 2.971-2.098 1.611-1.199 4.676-3.443 6.826-5.051 2.509-1.877 3.753-3.076 3.753-3.076 13.852-12.987 24.121-28.666 38.368-34.309 15.007-5.945 20.955-16.989 28.854-27.598 10.979-14.741 11.917-33.064 13.305-50.29.285-3.533.954-6.781 1.967-9.715 1.473-4.259 4.491-7.846 5.463-8.646.583-.477 1.15-.982 1.697-1.518a21.618 21.618 0 001.456-1.566c.759-.906 4.366-3.872 8.748-4.917 4.251-1.012 9.094-.991 14.435.232 25.231 5.79 50.579 11.098 75.94 16.295 2.959.604 5.99.841 9.037.992 4.5.224 8.467-.314 8.854-1.208.389-.89-1.264-3.354-3.703-5.479-1.51-1.313-3.064-2.521-4.807-3.325-25.012-11.542-50.033-23.085-75.342-33.962-13.035-5.602-21.693-20.058-17.658-34.117 7.613-26.524 9.466-53.591 9.16-80.943-.021-1.967-.155-3.933-.322-5.896-.273-3.252-1.143-5.949-1.935-6.026-.791-.078-1.812 3.493-2.272 7.977v.016c-.461 4.484-1.534 4.782-3.011.869a55.296 55.296 0 00-3.149-6.871c-1.849-3.395-7.021-.372-5.174 3.023a50.435 50.435 0 011.648 3.321c.841 1.869 1.057 7.075.645 11.562-.2 2.175-.399 4.35-.596 6.528-.412 4.488-.987 8.172-1.289 8.233-.302.057-1.514-3.419-2.709-7.769-.478-1.746-.959-3.488-1.437-5.234-1.195-4.345-2.469-7.809-2.844-7.74-.379.069-1.257 3.733-1.962 8.185l-1.261 7.948c-.706 4.451-1.575 8.095-1.935 8.131-.358.037-1.546-3.476-2.647-7.846-.608-2.403-1.24-4.92-1.93-7.646-1.102-4.37-2.808-5.582-3.803-2.705-1 2.876-2.285 1.579-3.346-2.799a85.742 85.742 0 00-3.587-11.298c-1.656-4.19-3.395-7.699-3.533-7.992-.139-.294-2.089-2.86-4.283-1.522-2.199 1.338-.576 7.633-.229 12.125a93.241 93.241 0 01-.2 16.524c-.453 4.484-1.714 7.495-2.396 6.773-.681-.722-2.488-4.798-5.107-8.47-1.987-2.787-4.427-5.304-7.275-7.503-3.06-2.358-6.038 2.852-3.022 5.173a26.358 26.358 0 017.213 8.564c2.109 3.982.743 5.116-1.669 1.967-2.406-3.154-4.916-5.21-5.602-4.594l-1.24 1.114c-1.265 1.11-2.529 2.22-4.022 3.533-2.22 1.95-4.758-.045-5.667-4.459-.898-4.357-1.759-8.519-2.6-12.607-.91-4.415-2.085-8.001-2.619-8.013-.539-.012-1.236 3.525-1.562 7.899-.326 4.374-1.763 7.67-3.211 7.348-1.444-.318-2.338 1.665-1.987 4.435.351 2.771-.522 4.933-1.95 4.831-1.428-.102-2.338 2.134-2.027 4.99.31 2.856-.192 4.227-1.122 3.072-.931-1.155-2.729-4.194-4.235-6.667a71.074 71.074 0 00-2.881-4.374 40.274 40.274 0 00-2.994-3.888 65.73 65.73 0 00-3.325-3.729 173.108 173.108 0 00-4.011-4.027c-.27-.261-.637-.473-.738-.575-.062-.061-.123-.122-.188-.179-2.901-2.521-7.161 1.697-4.239 4.239.135.114.261.233.388.355.208.2 1.941 3.664 3.863 7.74.755 1.596 1.506 3.195 2.261 4.79 1.926 4.076.313 5.545-3.803 3.709-9.895-4.415-20.481-6.896-31.6-7.401-.641-.028-1.175.114-1.6.371-.787.478-2.93 2.521-2.525 4.668.232 1.244 1.171 2.293 2.827 2.203a39.653 39.653 0 017.553.306c4.145.567 9.951 3.603 13.149 5.879 3.194 2.281 5.32 4.684 4.745 5.37-.575.685-3.979-.049-7.602-1.648-3.623-1.595-6.801-2.591-7.091-2.22-.294.372.069 1.191.808 1.84.739.648-2.162.089-6.576-.804a91.463 91.463 0 00-12.354-1.628c-2.032-.126-2.979 1.473-2.868 3.052-.033 1.522.926 3.133 2.88 3.244 2.322.134 4.595.473 6.798 1.012 3.692.902 9.4 4.468 12.975 7.209.109.085.22.171.33.253 3.574 2.746 6.577 5.092 6.708 5.251.13.159.098.648-.069 1.093-.168.445-1.682.58-3.379.298-1.697-.277-3.231-.583-3.439-.653a2.533 2.533 0 00-.384-.102c-8.376-1.632-16.756-3.268-25.132-4.9a35.662 35.662 0 00-2.905-.567c-1.975-.383-3.949-.771-5.925-1.154-1.15-.225-2.101.155-2.754.816-1.167 1.175-1.199 4.011-.322 5.059.478.571 1.216.938 2.212.902a31.313 31.313 0 017.181.542l.661.13c1.823.392 3.594.951 5.296 1.669 2.827 1.191 2.179 3.823-1.155 5.3-3.333 1.477-5.961 3.089-5.867 3.599.099.51 3.827.926 8.336.926h.693c4.509 0 8.254.583 8.368 1.301.114.718-3.366 2.064-7.772 3.007-.375.082-.759.163-1.146.245-4.406.942-5.724 3.081-2.938 4.778 2.782 1.697 1.388 3.072-3.121 3.072h-15.72c-4.509 0-8.271.587-8.406 1.313-.135.727 3.301 2.183 7.679 3.256l10.069 2.468c4.378 1.073 6.728 3.015 5.255 4.337-1.473 1.322-1.758 3.04-.641 3.835 1.118.796.951 3.558-.379 6.165s-5.949 5.602-10.339 6.622c-10.278 2.391-21.559 4.855-32.469 8.454-22.456 7.405-40.257 22.366-54.419 40.551-17.458 22.413-39.09 39.887-59.98 58.638-27.294 24.509-61.17 28.507-94.116 36.422-10.008 2.407-20.253 3.893-30.18 6.569-3.06.824-7.984 4.818-7.625 6.274.877 3.661 3.92 9.099 6.785 9.56zm292.479 28.785l.555.625c1.604 1.848 2.995 5.769 2.093 7.405-.983 1.774-4.957 3.076-7.286 2.66-4.158-.747-9.291-1.836-11.861-4.709l-1.66-2.231a145.779 145.779 0 0018.159-3.75z" fill-rule="nonzero"/></svg>